<svg width="400" height="400" viewBox="0 0 400 400" xmlns="http://www.w3.org/2000/svg">
<defs>
    <filter id="shadow" x="-20%" y="-20%" width="140%" height="140%">
        <feDropShadow dx="2" dy="4" stdDeviation="3" flood-opacity="0.3"/>
    </filter>
    <filter id="glow" x="-50%" y="-50%" width="200%" height="200%">
        <feGaussianBlur stdDeviation="8" result="blur"/>
        <feMerge><feMergeNode in="blur"/><feMergeNode in="SourceGraphic"/></feMerge>
    </filter>
    <linearGradient id="rainbow-body" x1="0%" y1="0%" x2="100%" y2="100%">
        <stop offset="0%" stop-color="#FF6B6B"/><stop offset="25%" stop-color="#FFE66D"/>
        <stop offset="50%" stop-color="#4ECDC4"/><stop offset="75%" stop-color="#45B7D1"/>
        <stop offset="100%" stop-color="#DDA0DD"/>
    </linearGradient>
    <radialGradient id="galaxy-body" cx="30%" cy="30%">
        <stop offset="0%" stop-color="#E6E6FA"/><stop offset="50%" stop-color="#9370DB"/>
        <stop offset="100%" stop-color="#1A0033"/>
    </radialGradient>
    <linearGradient id="holo-body" x1="0%" y1="0%" x2="100%" y2="100%">
        <stop offset="0%" stop-color="#FF00FF"/><stop offset="50%" stop-color="#00FFFF"/>
        <stop offset="100%" stop-color="#FFFF00"/>
    </linearGradient>
    <linearGradient id="sky-gradient" x1="0%" y1="0%" x2="0%" y2="100%">
        <stop offset="0%" stop-color="#87CEEB"/><stop offset="100%" stop-color="#E0F4FF"/>
    </linearGradient>
    <linearGradient id="grass-gradient" x1="0%" y1="0%" x2="0%" y2="100%">
        <stop offset="0%" stop-color="#90EE90"/><stop offset="100%" stop-color="#228B22"/>
    </linearGradient>
    <linearGradient id="sunset-gradient" x1="0%" y1="0%" x2="0%" y2="100%">
        <stop offset="0%" stop-color="#FF6B6B"/><stop offset="50%" stop-color="#FFE66D"/>
        <stop offset="100%" stop-color="#4ECDC4"/>
    </linearGradient>
    <linearGradient id="aurora-gradient" x1="0%" y1="0%" x2="100%" y2="100%">
        <stop offset="0%" stop-color="#0D1B2A"/><stop offset="30%" stop-color="#00FF7F"/>
        <stop offset="70%" stop-color="#FF00FF"/><stop offset="100%" stop-color="#0D1B2A"/>
    </linearGradient>
    <radialGradient id="multiverse-gradient" cx="50%" cy="50%">
        <stop offset="0%" stop-color="#FFD700"/><stop offset="40%" stop-color="#FF00FF"/>
        <stop offset="70%" stop-color="#00FFFF"/><stop offset="100%" stop-color="#000"/>
    </radialGradient>
    <linearGradient id="rift-gradient" x1="0%" y1="0%" x2="100%" y2="100%">
        <stop offset="0%" stop-color="#000"/><stop offset="30%" stop-color="#9400D3"/>
        <stop offset="50%" stop-color="#00FFFF"/><stop offset="70%" stop-color="#9400D3"/>
        <stop offset="100%" stop-color="#000"/>
    </linearGradient>
    <linearGradient id="heaven-gradient" x1="0%" y1="0%" x2="0%" y2="100%">
        <stop offset="0%" stop-color="#FFF"/><stop offset="50%" stop-color="#FFD700" stop-opacity="0.3"/>
        <stop offset="100%" stop-color="#F0F8FF"/>
    </linearGradient>
    <clipPath id="head-clip"><ellipse cx="200" cy="200" rx="110" ry="115"/></clipPath>
</defs>
<rect width="400" height="400" fill="#0D1B2A"/>
<circle cx="315" cy="185" r="1" fill="white" opacity="0.4"/>
<circle cx="230" cy="370" r="2" fill="white" opacity="0.5"/>
<circle cx="145" cy="155" r="1" fill="white" opacity="0.6000000000000001"/>
<circle cx="60" cy="340" r="2" fill="white" opacity="0.7000000000000001"/>
<circle cx="375" cy="125" r="1" fill="white" opacity="0.8"/>
<circle cx="290" cy="310" r="2" fill="white" opacity="0.4"/>
<circle cx="205" cy="95" r="1" fill="white" opacity="0.5"/>
<circle cx="120" cy="280" r="2" fill="white" opacity="0.6000000000000001"/>
<circle cx="35" cy="65" r="1" fill="white" opacity="0.7000000000000001"/>
<circle cx="350" cy="250" r="2" fill="white" opacity="0.8"/>
<circle cx="265" cy="35" r="1" fill="white" opacity="0.4"/>
<circle cx="180" cy="220" r="2" fill="white" opacity="0.5"/>
<circle cx="95" cy="5" r="1" fill="white" opacity="0.6000000000000001"/>
<circle cx="10" cy="190" r="2" fill="white" opacity="0.7000000000000001"/>
<circle cx="325" cy="375" r="1" fill="white" opacity="0.8"/>
<circle cx="240" cy="160" r="2" fill="white" opacity="0.4"/>
<circle cx="155" cy="345" r="1" fill="white" opacity="0.5"/>
<circle cx="70" cy="130" r="2" fill="white" opacity="0.6000000000000001"/>
<circle cx="385" cy="315" r="1" fill="white" opacity="0.7000000000000001"/>
<circle cx="300" cy="100" r="2" fill="white" opacity="0.8"/>
<circle cx="215" cy="285" r="1" fill="white" opacity="0.4"/>
<circle cx="130" cy="70" r="2" fill="white" opacity="0.5"/>
<circle cx="45" cy="255" r="1" fill="white" opacity="0.6000000000000001"/>
<circle cx="360" cy="40" r="2" fill="white" opacity="0.7000000000000001"/>
<circle cx="275" cy="225" r="1" fill="white" opacity="0.8"/>
<circle cx="190" cy="10" r="2" fill="white" opacity="0.4"/>
<circle cx="105" cy="195" r="1" fill="white" opacity="0.5"/>
<circle cx="20" cy="380" r="2" fill="white" opacity="0.6000000000000001"/>
<circle cx="335" cy="165" r="1" fill="white" opacity="0.7000000000000001"/>
<circle cx="250" cy="350" r="2" fill="white" opacity="0.8"/>
<circle cx="165" cy="135" r="1" fill="white" opacity="0.4"/>
<circle cx="80" cy="320" r="2" fill="white" opacity="0.5"/>
<circle cx="395" cy="105" r="1" fill="white" opacity="0.6000000000000001"/>
<circle cx="310" cy="290" r="2" fill="white" opacity="0.7000000000000001"/>
<circle cx="225" cy="75" r="1" fill="white" opacity="0.8"/>
<circle cx="140" cy="260" r="2" fill="white" opacity="0.4"/>
<circle cx="55" cy="45" r="1" fill="white" opacity="0.5"/>
<circle cx="370" cy="230" r="2" fill="white" opacity="0.6000000000000001"/>
<circle cx="285" cy="15" r="1" fill="white" opacity="0.7000000000000001"/>
<circle cx="200" cy="200" r="2" fill="white" opacity="0.8"/>

<ellipse cx="115" cy="140" rx="45" ry="50" fill="#808080" filter="url(#shadow)"/>
<ellipse cx="115" cy="140" rx="30" ry="35" fill="#FFB6C1"/>
<ellipse cx="115" cy="145" rx="18" ry="22" fill="#FF9999"/>
<ellipse cx="285" cy="140" rx="45" ry="50" fill="#808080" filter="url(#shadow)"/>
<ellipse cx="285" cy="140" rx="30" ry="35" fill="#FFB6C1"/>
<ellipse cx="285" cy="145" rx="18" ry="22" fill="#FF9999"/>
<ellipse cx="200" cy="200" rx="110" ry="115" fill="#808080" filter="url(#shadow)"/>
<ellipse cx="180" cy="140" rx="50" ry="30" fill="#A0A0A0" opacity="0.3"/>
<g clip-path="url(#head-clip)"><path d="M185 130 L215 190 L200 190 L230 250" stroke="#FFD700" stroke-width="3" fill="none" opacity="0.5"/></g>
<ellipse cx="200" cy="235" rx="70" ry="60" fill="#FFDAB9"/>
<ellipse cx="200" cy="250" rx="55" ry="40" fill="#DEB887" opacity="0.3"/>
<ellipse cx="162" cy="185" rx="22" ry="24" fill="#000" opacity="0.08"/>
<ellipse cx="238" cy="185" rx="22" ry="24" fill="#000" opacity="0.08"/>
<ellipse cx="162" cy="185" rx="20" ry="24" fill="white"/>
<circle cx="162" cy="185" r="14" fill="#3D2314"/>
<circle cx="162" cy="185" r="8" fill="#000"/>
<circle cx="167" cy="180" r="5" fill="white"/>
<ellipse cx="238" cy="185" rx="20" ry="24" fill="white"/>
<circle cx="238" cy="185" r="14" fill="#3D2314"/>
<circle cx="238" cy="185" r="8" fill="#000"/>
<circle cx="243" cy="180" r="5" fill="white"/>
<g>
            <ellipse cx="200" cy="230" rx="25" ry="18" fill="#8B4513"/>
            <ellipse cx="200" cy="230" rx="22" ry="15" fill="#A0522D"/>
            <ellipse cx="192" cy="230" rx="5" ry="7" fill="#5D2E0C"/>
            <ellipse cx="208" cy="230" rx="5" ry="7" fill="#5D2E0C"/>
        </g>
<ellipse cx="200" cy="265" rx="16" ry="22" fill="#8B0000"/>
<path d="M147 160 Q162 150 177 160" stroke="#5D2E0C" stroke-width="3" fill="none"/>
<path d="M223 160 Q238 150 253 160" stroke="#5D2E0C" stroke-width="3" fill="none"/>
<circle cx="238" cy="185" r="22" fill="none" stroke="#DAA520" stroke-width="3"/><line x1="260" y1="185" x2="290" y2="240" stroke="#DAA520" stroke-width="2"/>
<text x="110" y="110" font-size="24" fill="#FFD700">✦</text><text x="290" y="110" font-size="24" fill="#FFD700">✦</text><text x="110" y="290" font-size="24" fill="#FFD700">✦</text><text x="290" y="290" font-size="24" fill="#FFD700">✦</text><text x="200" y="70" font-size="24" fill="#FFD700">✦</text>
<g transform="translate(325, 15)">
            <rect width="65" height="22" rx="4" fill="#A0A0A0" opacity="0.9"/>
            <text x="32" y="15" font-size="8" fill="#FFF" text-anchor="middle" font-family="sans-serif" font-weight="bold">COMMON</text>
        </g>
        <g transform="translate(10, 15)">
            <rect width="45" height="22" rx="4" fill="#333" opacity="0.8"/>
            <text x="22" y="15" font-size="9" fill="#FFF" text-anchor="middle" font-family="sans-serif">Gen 1</text>
        </g>
</svg>